<?xml version="1.0" encoding="UTF-8" standalone="no"?>
<svg width="1323px" height="881px" viewBox="0 0 1323 881" version="1.1" xmlns="http://www.w3.org/2000/svg" xmlns:xlink="http://www.w3.org/1999/xlink" xmlns:sketch="http://www.bohemiancoding.com/sketch/ns">
    <!-- Generator: Sketch 3.5.1 (25234) - http://www.bohemiancoding.com/sketch -->
    <title>Mountain background</title>
    <desc>Created with Sketch.</desc>
    <defs>
        <path d="M1323,264.3 L1323,528.6 L0.15876,528.6 L0.15876,0 L1323,0 L1323,264.3 L1323,264.3 Z M390.285,17.62 C189.353052,17.62 26.46,126.090482 26.46,259.895 C26.46,393.70128 189.353052,502.17 390.285,502.17 C591.216948,502.17 754.11,393.70128 754.11,259.895 C754.11,126.090482 591.216948,17.62 390.285,17.62 L390.285,17.62 Z" id="path-1"></path>
        <path id="path-3" d="M0.15876,0 L1323,0 L1323,881 L0.15876,881"></path>
    </defs>
    <g id="Style-Guide" stroke="none" stroke-width="1" fill="none" fill-rule="evenodd" sketch:type="MSPage">
        <g id="Mountain-background" sketch:type="MSLayerGroup">
            <path d="M0.15876,0 L1323,0 L1323,881 L0.15876,881 L0.15876,0 Z" id="Fill-1" fill="#CCEBFF" sketch:type="MSShapeGroup"></path>
            <g id="Group-5">
                <mask id="mask-2" sketch:name="Clip 4" fill="white">
                    <use xlink:href="#path-1"></use>
                </mask>
                <g id="Clip-4"></g>
                <path d="M0.15876,0 L1323,0 L1323,881 L0.15876,881 L0.15876,0 Z" id="Fill-3" sketch:type="MSShapeGroup" mask="url(#mask-2)"></path>
            </g>
            <g id="Group-17">
                <mask id="mask-4" sketch:name="Clip 11" fill="white">
                    <use xlink:href="#path-3"></use>
                </mask>
                <g id="Clip-11"></g>
                <path d="M0,333.018 C0,333.018 36.390438,344.169698 59.976882,346.527254 C77.615118,348.289254 98.36505,361.158902 108.72414,366.9365 C138.473118,383.529254 185.436972,380.303032 198.45,380.592 C224.91,381.178746 299.204388,416.956156 340.452882,419.942746 C381.024,422.88 402.192,447.548 449.82,451.658746 C472.091382,453.581088 516.176388,450.108186 538.461,451.953 C546.692706,452.634894 560.676816,459.98772 568.89,460.763 C579.124728,461.730338 599.586246,456.794976 609.903,457.239 C622.871046,457.795792 648.074196,462.896782 660.177,466.049 C671.337828,468.954538 690.920874,478.997938 702.513,481.026 C714.994182,483.209118 741.84579,484.578192 754.11,481.907 C771.589476,478.099318 860.897268,448.783162 877.149,448.429 C897.978312,447.974404 940.63977,453.517656 960.498,449.31 C982.375128,444.674178 1010.65293,430.807238 1033.263,428.166 C1047.18096,426.539674 1074.95073,425.523 1088.829,423.761 C1101.87113,422.10472 1118.3663,405.256476 1130.72576,402.030254 C1147.041,397.7715 1183.93153,404.230992 1192.90676,403.498 C1214.514,401.736 1243.38451,408.089772 1252.881,407.022 C1263.64757,405.811506 1278.8806,393.597322 1288.602,390.283 C1296.70405,387.521946 1323,382.354 1323,382.354 L1323,808.758 L0,808.758 L0,333.018" id="Fill-10" fill="#DFEEFA" sketch:type="MSShapeGroup" mask="url(#mask-4)"></path>
                <path d="M0,399.974 C0,399.974 83.349,393.807 133.623,408.784 C157.788918,415.983532 201.096,448.429 250.047,452.834 C291.216114,456.539486 333.396,462.819254 381.024,466.93 C403.295382,468.852342 462.37527,497.669852 482.895,491.598 C494.802,488.074 520.986816,484.65572 529.2,485.431 C539.434728,486.398338 585.064998,507.635724 595.35,508.337 C646.947,511.861 684.432882,544.458 713.538882,542.696 C726.387858,541.918958 782.85879,516.294192 795.123,513.623 C812.602476,509.815318 872.804268,523.668162 889.056,523.314 C909.909126,522.859404 940.653,506.575 969.759,506.575 C1025.325,506.575 1063.692,491.892254 1087.506,487.487254 C1122.92536,480.936138 1157.625,514.504 1188.054,500.408 C1202.4403,493.744116 1238.328,473.978 1275.372,478.383 C1297.62751,481.029524 1323,475.74 1323,475.74 L1323,814.044 L0,814.044 L0,399.974" id="Fill-12" fill="#D1E3F0" sketch:type="MSShapeGroup" mask="url(#mask-4)"></path>
                <path d="M0,475.74 C0,475.74 41.454882,518.616508 113.778,523.314 C140.126868,525.026664 189.630882,511.568508 242.550882,522.140508 C282.34143,530.090652 313.109118,566.190508 360.737118,570.301254 C383.0085,572.223596 461.838132,554.936614 482.895,549.744 C542.43,535.061254 558.306,582.635254 595.35,582.341 C647.214246,581.930454 717.828048,600.255254 747.053118,600.255254 C784.097118,600.255254 822.906,588.508 867.006882,579.111254 C909.144432,570.132102 938.724066,581.75954 967.554882,579.111254 C1018.71,574.412 1091.35064,545.82355 1138.66112,536.823254 C1212.74912,522.727254 1323,532.124 1323,532.124 L1323,835.188 L0,835.188 L0,475.74" id="Fill-13" fill="#C8DBEC" sketch:type="MSShapeGroup" mask="url(#mask-4)"></path>
                <path d="M1323,532.124 C1323,532.124 1263.08927,536.092024 1239.651,550.625 C1201.284,574.412 1181.1109,576.875276 1156.302,578.817 C1130.28388,580.850348 1094.56024,574.390856 1075.599,575.293 C1034.16264,577.262916 1005.21805,598.288862 962.262882,612.589254 C928.746,623.748 911.435868,618.368614 890.379,613.176 C857.986668,605.187092 838.782,622.867 787.185,621.105 C764.723106,620.336768 744.849,631.677 725.004,630.796 C693.21231,629.384638 668.115,614.938 640.332,614.057 C587.324682,612.376052 605.108448,601.525656 538.461,599.08 C487.157706,597.199946 452.436894,614.240248 424.683,612.295 C399.546,610.533 341.111736,593.536748 332.073,592.032 C310.905,588.508 291.501882,598.785746 247.401,589.389 C205.26345,580.409848 185.0877,567.288234 156.114,569.126 C128.331,570.888 97.917876,553.333194 72.765,555.911 C38.367,559.435 0,558.554 0,558.554 L0,808.758 L1323,808.758 L1323,532.124" id="Fill-14" fill="#B5CEE0" sketch:type="MSShapeGroup" mask="url(#mask-4)"></path>
                <path d="M0,620.224 C0,620.224 51.327108,639.114402 83.349,638.725 C107.602236,638.430746 117.19134,652.93553 142.000236,654.877254 C168.018354,656.910602 213.003,683.340602 231.964236,684.242746 C273.400596,686.212662 313.005924,679.538206 360.737118,683.069254 C392.489118,685.418 408.365118,707.150508 453.347118,699.514 C486.819018,693.83155 494.717328,707.443 545.957118,711.848 C573.300882,714.198508 598.877118,684.831254 629.748,690.117254 C660.605652,695.401492 731.444364,647.47333 757.637118,653.702 C776.159118,658.107 786.340926,664.386768 852.893118,667.798 C875.826,668.973254 906.284106,679.141756 934.038,677.196508 C959.175,675.434508 1023.78238,650.509256 1032.82112,649.004508 C1053.98912,645.480508 1061.046,656.050746 1105.14688,646.654 C1147.28443,637.674848 1142.40256,650.086376 1166.886,639.606 C1191.58112,629.034 1218.04112,612.589254 1250.235,608.771 C1284.49805,604.706066 1323,614.938 1323,614.938 L1323,845.76 L0,845.76 L0,620.224" id="Fill-15" fill="#A3BED1" sketch:type="MSShapeGroup" mask="url(#mask-4)"></path>
                <path d="M1323,725.944 C1323,725.944 1287.10701,749.239402 1255.08512,748.85 C1230.83188,748.555746 1182.4339,734.574276 1157.625,736.516 C1131.60688,738.549348 1098.09,767.351 1066.338,764.708 C1025.11597,761.277386 996.322194,786.725952 948.591,790.257 C916.839,792.605746 887.733,771.463508 842.751,763.827 C809.2791,758.14455 797.769,744.445 779.247,744.445 C751.67568,744.445 706.923882,755.898 676.053,761.184 C645.195348,766.468238 621.81,740.921 595.35,736.516 C576.269694,733.339114 559.58931,753.662022 493.037118,757.073254 C470.104236,758.248508 413.18613,727.302502 385.432236,725.357254 C360.295236,723.595254 316.855854,732.734748 307.817118,731.23 C286.649118,727.706 265.481118,723.006746 221.380236,713.61 C179.242686,704.630848 185.040072,714.577338 156.111354,712.436508 C124.359354,710.086 101.871,720.952254 69.677118,717.134 C35.414064,713.069066 0,703.038 0,703.038 L0,881 L1323,881 L1323,725.944" id="Fill-16" fill="#95B2C7" sketch:type="MSShapeGroup" mask="url(#mask-4)"></path>
            </g>
        </g>
    </g>
</svg>